<?xml version="1.0" standalone="no"?>
<!DOCTYPE svg PUBLIC "-//W3C//DTD SVG 20010904//EN"
 "http://www.w3.org/TR/2001/REC-SVG-20010904/DTD/svg10.dtd">
<svg version="1.0" xmlns="http://www.w3.org/2000/svg"
 width="180.000000pt" height="180.000000pt" viewBox="0 0 180.000000 180.000000"
 preserveAspectRatio="xMidYMid meet">

<g transform="translate(0.000000,180.000000) scale(0.100000,-0.100000)"
fill="red" stroke="none">
<path d="M805 1740 c-184 -28 -342 -121 -425 -250 -48 -75 -70 -157 -70 -260
0 -213 99 -353 311 -440 85 -36 112 -43 257 -75 143 -31 214 -65 252 -117 55
-75 49 -156 -15 -226 -123 -137 -394 -128 -526 15 -38 42 -89 133 -89 161 0
24 -39 90 -66 111 -34 27 -88 27 -113 2 -42 -42 -40 -185 5 -322 42 -127 122
-193 289 -240 65 -18 111 -23 245 -25 151 -2 172 -1 250 22 111 33 179 73 266
159 140 139 201 335 158 515 -45 191 -171 276 -537 361 -184 42 -256 73 -286
123 -46 76 -33 152 34 214 88 79 230 95 348 37 68 -34 154 -120 191 -193 35
-69 59 -92 97 -92 42 0 91 52 109 114 25 92 -17 247 -88 324 -48 52 -77 59
-135 33 -25 -12 -49 -21 -52 -21 -3 0 -35 14 -70 31 -92 44 -213 58 -340 39z"/>
</g>
</svg>
