<svg width="27" height="19" viewBox="0 0 27 19" fill="none" xmlns="http://www.w3.org/2000/svg">
<path d="M7.875 0.249999C10.6417 0.249999 12.6417 0.966666 13.875 2.4C15.125 3.81667 15.75 6.1 15.75 9.25C15.75 12.4 15.125 14.6917 13.875 16.125C12.6417 17.5417 10.6417 18.25 7.875 18.25C5.125 18.25 3.125 17.5417 1.875 16.125C0.625 14.6917 7.07805e-08 12.4 7.07805e-08 9.25C7.07805e-08 6.1 0.625 3.81667 1.875 2.4C3.125 0.966666 5.125 0.249999 7.875 0.249999ZM3.75 9.25C3.75 11.15 4.08333 12.5417 4.75 13.425C5.41667 14.3083 6.45833 14.75 7.875 14.75C9.34167 14.75 10.3917 14.3167 11.025 13.45C11.675 12.5833 12 11.1833 12 9.25C12 7.3 11.675 5.9 11.025 5.05C10.3917 4.18333 9.34167 3.75 7.875 3.75C6.45833 3.75 5.41667 4.19167 4.75 5.075C4.08333 5.94167 3.75 7.33333 3.75 9.25ZM17.374 4.875L24.399 0.499999H26.949V18H23.199V5.45L19.424 7.925L17.374 4.875Z" fill="url(#paint0_linear_63_18)"/>
<defs>
<linearGradient id="paint0_linear_63_18" x1="1.93447" y1="11.7536" x2="50.9016" y2="12.6594" gradientUnits="userSpaceOnUse">
<stop stop-color="#B5FEEF"/>
<stop offset="1" stop-color="#2EECC5"/>
</linearGradient>
</defs>
</svg>
