<svg width="32" height="19" viewBox="0 0 32 19" fill="none" xmlns="http://www.w3.org/2000/svg">
<path d="M7.875 0.249999C10.6417 0.249999 12.6417 0.966666 13.875 2.4C15.125 3.81667 15.75 6.1 15.75 9.25C15.75 12.4 15.125 14.6917 13.875 16.125C12.6417 17.5417 10.6417 18.25 7.875 18.25C5.125 18.25 3.125 17.5417 1.875 16.125C0.625 14.6917 7.07805e-08 12.4 7.07805e-08 9.25C7.07805e-08 6.1 0.625 3.81667 1.875 2.4C3.125 0.966666 5.125 0.249999 7.875 0.249999ZM3.75 9.25C3.75 11.15 4.08333 12.5417 4.75 13.425C5.41667 14.3083 6.45833 14.75 7.875 14.75C9.34167 14.75 10.3917 14.3167 11.025 13.45C11.675 12.5833 12 11.1833 12 9.25C12 7.3 11.675 5.9 11.025 5.05C10.3917 4.18333 9.34167 3.75 7.875 3.75C6.45833 3.75 5.41667 4.19167 4.75 5.075C4.08333 5.94167 3.75 7.33333 3.75 9.25ZM24.599 0.249999C27.0324 0.249999 28.8074 0.699999 29.924 1.6C31.0574 2.48333 31.624 3.91667 31.624 5.9C31.624 7.21667 31.3574 8.26667 30.824 9.05C30.2907 9.83333 29.4574 10.4 28.324 10.75L22.874 12.425C22.4074 12.5583 22.074 12.7667 21.874 13.05C21.674 13.3167 21.574 13.7083 21.574 14.225V14.5H31.474V18H17.824V14.65C17.824 11.75 18.924 9.96667 21.124 9.3L26.649 7.6C27.4657 7.35 27.874 6.80833 27.874 5.975C27.874 5.20833 27.599 4.65 27.049 4.3C26.5157 3.93333 25.6657 3.75 24.499 3.75C22.3324 3.75 21.249 4.45833 21.249 5.875H17.499C17.499 3.90833 18.0657 2.48333 19.199 1.6C20.3324 0.699999 22.1324 0.249999 24.599 0.249999Z" fill="url(#paint0_linear_22_6512)"/>
<defs>
<linearGradient id="paint0_linear_22_6512" x1="2.21845" y1="11.7536" x2="55.9206" y2="12.8432" gradientUnits="userSpaceOnUse">
<stop stop-color="#B5FEEF"/>
<stop offset="1" stop-color="#2EECC5"/>
</linearGradient>
</defs>
</svg>
