<svg width="32" height="19" viewBox="0 0 32 19" fill="none" xmlns="http://www.w3.org/2000/svg">
<path d="M7.875 0.249999C10.6417 0.249999 12.6417 0.966666 13.875 2.4C15.125 3.81667 15.75 6.1 15.75 9.25C15.75 12.4 15.125 14.6917 13.875 16.125C12.6417 17.5417 10.6417 18.25 7.875 18.25C5.125 18.25 3.125 17.5417 1.875 16.125C0.625 14.6917 7.07805e-08 12.4 7.07805e-08 9.25C7.07805e-08 6.1 0.625 3.81667 1.875 2.4C3.125 0.966666 5.125 0.249999 7.875 0.249999ZM3.75 9.25C3.75 11.15 4.08333 12.5417 4.75 13.425C5.41667 14.3083 6.45833 14.75 7.875 14.75C9.34167 14.75 10.3917 14.3167 11.025 13.45C11.675 12.5833 12 11.1833 12 9.25C12 7.3 11.675 5.9 11.025 5.05C10.3917 4.18333 9.34167 3.75 7.875 3.75C6.45833 3.75 5.41667 4.19167 4.75 5.075C4.08333 5.94167 3.75 7.33333 3.75 9.25ZM17.249 12.675H20.999C20.999 13.3917 21.2657 13.9167 21.799 14.25C22.3324 14.5833 23.174 14.75 24.324 14.75C26.524 14.75 27.624 14.0667 27.624 12.7C27.624 11.9833 27.3324 11.475 26.749 11.175C26.1657 10.8583 25.2157 10.7 23.899 10.7H23.124V7.45H24.049C25.249 7.45 26.1074 7.30833 26.624 7.025C27.1574 6.725 27.424 6.24167 27.424 5.575C27.424 4.925 27.1824 4.45833 26.699 4.175C26.2324 3.89167 25.474 3.75 24.424 3.75C23.3574 3.75 22.5824 3.9 22.099 4.2C21.6157 4.5 21.374 4.975 21.374 5.625H17.624C17.624 3.74167 18.1574 2.375 19.224 1.525C20.3074 0.674999 22.0407 0.249999 24.424 0.249999C26.7907 0.249999 28.5074 0.633332 29.574 1.4C30.6407 2.16667 31.174 3.40833 31.174 5.125C31.174 6.975 30.499 8.29167 29.149 9.075C30.6324 9.85833 31.374 11.225 31.374 13.175C31.374 14.9417 30.8157 16.2333 29.699 17.05C28.5824 17.85 26.7907 18.25 24.324 18.25C21.8574 18.25 20.0574 17.8083 18.924 16.925C17.8074 16.0417 17.249 14.625 17.249 12.675Z" fill="url(#paint0_linear_24_6742)"/>
<defs>
<linearGradient id="paint0_linear_24_6742" x1="2.21845" y1="11.7536" x2="55.9206" y2="12.8432" gradientUnits="userSpaceOnUse">
<stop stop-color="#B5FEEF"/>
<stop offset="1" stop-color="#2EECC5"/>
</linearGradient>
</defs>
</svg>
