<svg width="33" height="19" viewBox="0 0 33 19" fill="none" xmlns="http://www.w3.org/2000/svg">
<path d="M7.875 0.249999C10.6417 0.249999 12.6417 0.966666 13.875 2.4C15.125 3.81667 15.75 6.1 15.75 9.25C15.75 12.4 15.125 14.6917 13.875 16.125C12.6417 17.5417 10.6417 18.25 7.875 18.25C5.125 18.25 3.125 17.5417 1.875 16.125C0.625 14.6917 7.07805e-08 12.4 7.07805e-08 9.25C7.07805e-08 6.1 0.625 3.81667 1.875 2.4C3.125 0.966666 5.125 0.249999 7.875 0.249999ZM3.75 9.25C3.75 11.15 4.08333 12.5417 4.75 13.425C5.41667 14.3083 6.45833 14.75 7.875 14.75C9.34167 14.75 10.3917 14.3167 11.025 13.45C11.675 12.5833 12 11.1833 12 9.25C12 7.3 11.675 5.9 11.025 5.05C10.3917 4.18333 9.34167 3.75 7.875 3.75C6.45833 3.75 5.41667 4.19167 4.75 5.075C4.08333 5.94167 3.75 7.33333 3.75 9.25ZM17.749 12.675H21.499C21.499 14.0583 22.6657 14.75 24.999 14.75C26.2824 14.75 27.224 14.55 27.824 14.15C28.4407 13.75 28.749 13.1167 28.749 12.25C28.749 11.3667 28.4157 10.725 27.749 10.325C27.099 9.90833 26.049 9.7 24.599 9.7C22.799 9.7 21.899 10.0333 21.899 10.7H18.399V0.499999H31.149V4.25H21.899V7.05C22.7824 6.48333 24.1074 6.2 25.874 6.2C28.1407 6.2 29.8074 6.68333 30.874 7.65C31.9574 8.6 32.499 10.0917 32.499 12.125C32.499 14.275 31.899 15.8333 30.699 16.8C29.499 17.7667 27.5907 18.25 24.974 18.25C22.4407 18.25 20.599 17.8083 19.449 16.925C18.3157 16.0417 17.749 14.625 17.749 12.675Z" fill="url(#paint0_linear_22_6457)"/>
<defs>
<linearGradient id="paint0_linear_22_6457" x1="2.31311" y1="11.7536" x2="57.5934" y2="12.9082" gradientUnits="userSpaceOnUse">
<stop stop-color="#B5FEEF"/>
<stop offset="1" stop-color="#2EECC5"/>
</linearGradient>
</defs>
</svg>
