<svg width="307" height="168" viewBox="0 0 307 168" fill="none" xmlns="http://www.w3.org/2000/svg">
<g filter="url(#filter0_d_493_162)">
<rect x="62.75" y="50.75" width="181.5" height="54.5" rx="27.25" fill="#2EECC5" fill-opacity="0.1" stroke="#2EECC5" stroke-width="1.5"/>
</g>
<path d="M106.6 80.9H108.86C108.86 81.6333 109.187 82.1733 109.84 82.52C110.493 82.8667 111.52 83.04 112.92 83.04C114.307 83.04 115.32 82.8733 115.96 82.54C116.613 82.1933 116.94 81.6533 116.94 80.92C116.94 80.1733 116.66 79.64 116.1 79.32C115.54 78.9867 114.633 78.82 113.38 78.82H110.7V76.84H113.5C114.66 76.84 115.493 76.6867 116 76.38C116.52 76.0733 116.78 75.5733 116.78 74.88C116.78 74.2 116.473 73.7133 115.86 73.42C115.247 73.1133 114.287 72.96 112.98 72.96C111.66 72.96 110.693 73.1133 110.08 73.42C109.467 73.7267 109.16 74.22 109.16 74.9H106.9C106.9 73.4733 107.373 72.44 108.32 71.8C109.28 71.1467 110.833 70.82 112.98 70.82C115.127 70.82 116.673 71.12 117.62 71.72C118.567 72.32 119.04 73.2867 119.04 74.62C119.04 76.1933 118.427 77.26 117.2 77.82C118.547 78.42 119.22 79.54 119.22 81.18C119.22 82.58 118.713 83.6 117.7 84.24C116.7 84.8667 115.107 85.18 112.92 85.18C110.72 85.18 109.113 84.84 108.1 84.16C107.1 83.48 106.6 82.3933 106.6 80.9ZM125.08 85.18C123.72 85.18 122.72 84.9267 122.08 84.42C121.44 83.9 121.12 83.0867 121.12 81.98C121.12 80.8333 121.466 80.02 122.16 79.54C122.866 79.0467 124.006 78.8 125.58 78.8H128.92C128.893 77.9733 128.66 77.3733 128.22 77C127.793 76.6133 127.113 76.42 126.18 76.42C125.42 76.42 124.833 76.5467 124.42 76.8C124.006 77.04 123.733 77.4333 123.6 77.98H121.34C121.526 76.74 122.006 75.84 122.78 75.28C123.553 74.7067 124.713 74.42 126.26 74.42C127.993 74.42 129.246 74.7733 130.02 75.48C130.806 76.1867 131.2 77.32 131.2 78.88V85H128.92V83.82C128.146 84.7267 126.866 85.18 125.08 85.18ZM123.38 81.9C123.38 82.7533 124.126 83.18 125.62 83.18C126.646 83.18 127.42 82.9933 127.94 82.62C128.46 82.2467 128.786 81.66 128.92 80.86V80.5H126.18C124.313 80.5 123.38 80.9667 123.38 81.9ZM136.104 85H133.844V74.6H136.104V78.64H137.824L141.024 74.6H143.784L139.724 79.68L144.064 85H141.264L137.824 80.78H136.104V85ZM149.064 85.18C147.704 85.18 146.704 84.9267 146.064 84.42C145.424 83.9 145.104 83.0867 145.104 81.98C145.104 80.8333 145.451 80.02 146.144 79.54C146.851 79.0467 147.991 78.8 149.564 78.8H152.904C152.877 77.9733 152.644 77.3733 152.204 77C151.777 76.6133 151.097 76.42 150.164 76.42C149.404 76.42 148.817 76.5467 148.404 76.8C147.991 77.04 147.717 77.4333 147.584 77.98H145.324C145.511 76.74 145.991 75.84 146.764 75.28C147.537 74.7067 148.697 74.42 150.244 74.42C151.977 74.42 153.231 74.7733 154.004 75.48C154.791 76.1867 155.184 77.32 155.184 78.88V85H152.904V83.82C152.131 84.7267 150.851 85.18 149.064 85.18ZM147.364 81.9C147.364 82.7533 148.111 83.18 149.604 83.18C150.631 83.18 151.404 82.9933 151.924 82.62C152.444 82.2467 152.771 81.66 152.904 80.86V80.5H150.164C148.297 80.5 147.364 80.9667 147.364 81.9ZM157.268 81.56H159.548C159.682 82.1333 159.968 82.5467 160.408 82.8C160.862 83.0533 161.528 83.18 162.408 83.18C163.222 83.18 163.822 83.0733 164.208 82.86C164.595 82.6333 164.788 82.28 164.788 81.8C164.788 81.3733 164.635 81.0667 164.328 80.88C164.035 80.6933 163.548 80.6 162.868 80.6H160.968V78.9H162.768C163.982 78.9 164.588 78.5067 164.588 77.72C164.588 76.8533 163.835 76.42 162.328 76.42C161.475 76.42 160.835 76.5467 160.408 76.8C159.982 77.0533 159.702 77.4667 159.568 78.04H157.308C157.455 76.7733 157.935 75.8533 158.748 75.28C159.562 74.7067 160.795 74.42 162.448 74.42C163.968 74.42 165.082 74.6667 165.788 75.16C166.495 75.64 166.848 76.4067 166.848 77.46C166.848 78.5267 166.462 79.2733 165.688 79.7C166.595 80.1 167.048 80.8933 167.048 82.08C167.048 83.16 166.682 83.9467 165.948 84.44C165.228 84.9333 164.088 85.18 162.528 85.18C160.835 85.18 159.575 84.8933 158.748 84.32C157.922 83.7467 157.428 82.8267 157.268 81.56ZM172.814 85.18C171.454 85.18 170.454 84.9267 169.814 84.42C169.174 83.9 168.854 83.0867 168.854 81.98C168.854 80.8333 169.201 80.02 169.894 79.54C170.601 79.0467 171.741 78.8 173.314 78.8H176.654C176.627 77.9733 176.394 77.3733 175.954 77C175.527 76.6133 174.847 76.42 173.914 76.42C173.154 76.42 172.567 76.5467 172.154 76.8C171.741 77.04 171.467 77.4333 171.334 77.98H169.074C169.261 76.74 169.741 75.84 170.514 75.28C171.287 74.7067 172.447 74.42 173.994 74.42C175.727 74.42 176.981 74.7733 177.754 75.48C178.541 76.1867 178.934 77.32 178.934 78.88V85H176.654V83.82C175.881 84.7267 174.601 85.18 172.814 85.18ZM171.114 81.9C171.114 82.7533 171.861 83.18 173.354 83.18C174.381 83.18 175.154 82.9933 175.674 82.62C176.194 82.2467 176.521 81.66 176.654 80.86V80.5H173.914C172.047 80.5 171.114 80.9667 171.114 81.9ZM190.604 76.72H186.624V85H184.344V76.72H180.344V74.6H190.604V76.72ZM192.32 85V74.6H194.58V77.64H197.46C198.914 77.64 199.967 77.9333 200.62 78.52C201.287 79.0933 201.62 80.0267 201.62 81.32C201.62 82.6133 201.287 83.5533 200.62 84.14C199.967 84.7133 198.92 85 197.48 85H192.32ZM197.26 79.78H194.58V82.88H197.28C198 82.88 198.52 82.76 198.84 82.52C199.174 82.2667 199.34 81.8667 199.34 81.32C199.34 80.7733 199.174 80.38 198.84 80.14C198.52 79.9 197.994 79.78 197.26 79.78Z" fill="white"/>
<defs>
<filter id="filter0_d_493_162" x="0" y="-12" width="307" height="180" filterUnits="userSpaceOnUse" color-interpolation-filters="sRGB">
<feFlood flood-opacity="0" result="BackgroundImageFix"/>
<feColorMatrix in="SourceAlpha" type="matrix" values="0 0 0 0 0 0 0 0 0 0 0 0 0 0 0 0 0 0 127 0" result="hardAlpha"/>
<feOffset/>
<feGaussianBlur stdDeviation="31"/>
<feComposite in2="hardAlpha" operator="out"/>
<feColorMatrix type="matrix" values="0 0 0 0 0.180392 0 0 0 0 0.92549 0 0 0 0 0.772549 0 0 0 0.15 0"/>
<feBlend mode="normal" in2="BackgroundImageFix" result="effect1_dropShadow_493_162"/>
<feBlend mode="normal" in="SourceGraphic" in2="effect1_dropShadow_493_162" result="shape"/>
</filter>
</defs>
</svg>
