<svg width="200" height="57" viewBox="0 0 200 57" fill="none" xmlns="http://www.w3.org/2000/svg">
<path d="M166.707 30.7071C167.098 30.3166 167.098 29.6834 166.707 29.2929L160.343 22.9289C159.953 22.5384 159.319 22.5384 158.929 22.9289C158.538 23.3195 158.538 23.9526 158.929 24.3431L164.586 30L158.929 35.6569C158.538 36.0474 158.538 36.6805 158.929 37.0711C159.319 37.4616 159.953 37.4616 160.343 37.0711L166.707 30.7071ZM165 31H166V29H165V31Z" fill="white"/>
<path d="M34.463 35V21.7H47.326V35H45.046V23.866H36.762V35H34.463ZM50.766 26.165C51.5767 25.3543 52.8687 24.949 54.642 24.949C56.4154 24.949 57.7074 25.3543 58.518 26.165C59.3287 26.9757 59.734 28.274 59.734 30.06C59.734 31.846 59.3287 33.1443 58.518 33.955C57.7074 34.7657 56.4154 35.171 54.642 35.171C52.8687 35.171 51.5767 34.7657 50.766 33.955C49.968 33.1443 49.569 31.846 49.569 30.06C49.569 28.274 49.968 26.9757 50.766 26.165ZM52.419 27.723C51.963 28.2043 51.735 28.9833 51.735 30.06C51.735 31.1367 51.963 31.922 52.419 32.416C52.8877 32.8973 53.6287 33.138 54.642 33.138C55.668 33.138 56.409 32.8973 56.865 32.416C57.3337 31.922 57.568 31.1367 57.568 30.06C57.568 28.9833 57.3337 28.2043 56.865 27.723C56.409 27.229 55.668 26.982 54.642 26.982C53.6287 26.982 52.8877 27.229 52.419 27.723ZM62.9544 37.964H60.8074V32.986H62.2134C62.5681 32.72 62.8277 32.245 62.9924 31.561C63.1697 30.8643 63.3027 29.6167 63.3914 27.818L63.5244 25.12H71.6754V32.986H73.4994V37.964H71.3524V35H62.9544V37.964ZM64.7214 32.986H69.5094V27.134H65.5384L65.5004 28.008C65.3864 30.3513 65.1267 32.0107 64.7214 32.986ZM75.483 39.75V25.12H77.63V26.336C78.3266 25.4113 79.5046 24.949 81.164 24.949C82.722 24.949 83.8493 25.3543 84.546 26.165C85.2553 26.9757 85.61 28.274 85.61 30.06C85.61 31.846 85.2553 33.1443 84.546 33.955C83.8493 34.7657 82.722 35.171 81.164 35.171C79.5046 35.171 78.3266 34.7087 77.63 33.784V39.75H75.483ZM78.352 32.416C78.808 32.8973 79.5426 33.138 80.556 33.138C81.5693 33.138 82.304 32.8973 82.76 32.416C83.216 31.922 83.444 31.1367 83.444 30.06C83.444 28.9833 83.216 28.2043 82.76 27.723C82.304 27.229 81.5693 26.982 80.556 26.982C79.5426 26.982 78.808 27.229 78.352 27.723C77.896 28.2043 77.668 28.9833 77.668 30.06C77.668 31.1367 77.896 31.922 78.352 32.416ZM88.3578 26.165C89.1685 25.3543 90.4605 24.949 92.2338 24.949C94.0072 24.949 95.2992 25.3543 96.1098 26.165C96.9205 26.9757 97.3258 28.274 97.3258 30.06C97.3258 31.846 96.9205 33.1443 96.1098 33.955C95.2992 34.7657 94.0072 35.171 92.2338 35.171C90.4605 35.171 89.1685 34.7657 88.3578 33.955C87.5598 33.1443 87.1608 31.846 87.1608 30.06C87.1608 28.274 87.5598 26.9757 88.3578 26.165ZM90.0108 27.723C89.5548 28.2043 89.3268 28.9833 89.3268 30.06C89.3268 31.1367 89.5548 31.922 90.0108 32.416C90.4795 32.8973 91.2205 33.138 92.2338 33.138C93.2598 33.138 94.0008 32.8973 94.4568 32.416C94.9255 31.922 95.1598 31.1367 95.1598 30.06C95.1598 28.9833 94.9255 28.2043 94.4568 27.723C94.0008 27.229 93.2598 26.982 92.2338 26.982C91.2205 26.982 90.4795 27.229 90.0108 27.723ZM104.131 20.883L108.254 20.579V22.612L104.302 22.897C103.352 22.9603 102.643 23.182 102.174 23.562C101.706 23.942 101.414 24.5753 101.3 25.462C101.237 25.7913 101.205 26.2283 101.205 26.773C101.357 26.1397 101.687 25.6773 102.193 25.386C102.7 25.0947 103.416 24.949 104.34 24.949C106.05 24.949 107.292 25.3543 108.064 26.165C108.837 26.963 109.223 28.2487 109.223 30.022C109.223 31.8207 108.824 33.1317 108.026 33.955C107.228 34.7657 105.949 35.171 104.188 35.171C102.96 35.171 101.984 34.9683 101.262 34.563C100.54 34.1577 99.9831 33.4293 99.5904 32.378C99.2104 31.314 99.0204 29.851 99.0204 27.989C99.0204 25.5443 99.3877 23.7837 100.122 22.707C100.857 21.6303 102.193 21.0223 104.131 20.883ZM101.984 27.704C101.528 28.1853 101.3 28.9643 101.3 30.041C101.3 31.1177 101.528 31.903 101.984 32.397C102.44 32.891 103.175 33.138 104.188 33.138C105.189 33.138 105.917 32.8973 106.373 32.416C106.829 31.922 107.057 31.1303 107.057 30.041C107.057 28.9643 106.829 28.1853 106.373 27.704C105.917 27.2227 105.189 26.982 104.188 26.982C103.175 26.982 102.44 27.2227 101.984 27.704ZM111.275 35V25.12H113.422V29.053H118.647V25.12H120.813V35H118.647V31.067H113.422V35H111.275ZM122.86 30.06C122.86 28.2867 123.259 26.9947 124.057 26.184C124.855 25.3607 126.141 24.949 127.914 24.949C129.687 24.949 130.967 25.3543 131.752 26.165C132.537 26.9757 132.93 28.274 132.93 30.06C132.93 30.1993 132.917 30.421 132.892 30.725H125.083C125.159 31.6117 125.425 32.2577 125.881 32.663C126.35 33.0683 127.034 33.271 127.933 33.271C129.263 33.271 130.118 32.8213 130.498 31.922H132.74C132.487 33.1253 131.948 33.9677 131.125 34.449C130.302 34.9303 129.231 35.171 127.914 35.171C126.141 35.171 124.855 34.7657 124.057 33.955C123.259 33.1443 122.86 31.846 122.86 30.06ZM125.102 29.11H130.745C130.631 28.2993 130.346 27.723 129.89 27.381C129.434 27.0263 128.782 26.849 127.933 26.849C127.084 26.849 126.426 27.0263 125.957 27.381C125.501 27.7357 125.216 28.312 125.102 29.11ZM134.494 30.06C134.494 28.2867 134.893 26.9947 135.691 26.184C136.489 25.3607 137.775 24.949 139.548 24.949C141.321 24.949 142.601 25.3543 143.386 26.165C144.171 26.9757 144.564 28.274 144.564 30.06C144.564 30.1993 144.551 30.421 144.526 30.725H136.717C136.793 31.6117 137.059 32.2577 137.515 32.663C137.984 33.0683 138.668 33.271 139.567 33.271C140.897 33.271 141.752 32.8213 142.132 31.922H144.374C144.121 33.1253 143.582 33.9677 142.759 34.449C141.936 34.9303 140.865 35.171 139.548 35.171C137.775 35.171 136.489 34.7657 135.691 33.955C134.893 33.1443 134.494 31.846 134.494 30.06ZM136.736 29.11H142.379C142.265 28.2993 141.98 27.723 141.524 27.381C141.068 27.0263 140.416 26.849 139.567 26.849C138.718 26.849 138.06 27.0263 137.591 27.381C137.135 27.7357 136.85 28.312 136.736 29.11Z" fill="white"/>
<rect x="0.75" y="0.75" width="198.5" height="55.5" rx="27.75" fill="#2EECC5" fill-opacity="0.1" stroke="#2EECC5" stroke-width="1.5"/>
</svg>
