<svg width="97" height="67" viewBox="0 0 97 67" fill="none" xmlns="http://www.w3.org/2000/svg">
<path d="M1.63356 20.2362L8.23352 20.2141L14.7006 40.1925L20.7935 20.1719L27.5934 20.1491L33.8605 40.1282L40.1533 20.1069L46.7533 20.0848L37.4473 48.1162L30.2874 48.1402L24.224 29.2805L18.2874 48.1805L11.1275 48.2045L1.63356 20.2362ZM68.7753 48.011L45.2554 48.09L45.1614 20.0901L68.6813 20.0112L68.7014 26.0112L51.5815 26.0686L51.599 31.2686L66.7189 31.2178L66.7377 36.8178L51.6178 36.8686L51.6352 42.0685L68.7551 42.0111L68.7753 48.011ZM85.1896 47.9559L68.3897 48.0123L68.2957 20.0125L84.2956 19.9588C87.5222 19.9479 89.8576 20.5534 91.3017 21.7753C92.7724 22.9703 93.5122 24.8879 93.5211 27.5279C93.5303 30.2745 92.7102 32.2506 91.0609 33.4561C93.2514 34.5955 94.3522 36.8185 94.3633 40.1251C94.3725 42.8451 93.6458 44.8342 92.1834 46.0925C90.7475 47.3239 88.4162 47.9451 85.1896 47.9559ZM74.7695 41.9909L85.1694 41.956C86.2894 41.9522 87.102 41.7361 87.6073 41.3078C88.1124 40.8528 88.3634 40.1586 88.3603 39.2252C88.3572 38.2919 88.1015 37.6128 87.5934 37.1878C87.0853 36.7628 86.2713 36.5522 85.1513 36.556L74.7514 36.5909L74.7695 41.9909ZM74.7326 30.9909L84.1325 30.9594C85.3058 30.9554 86.1585 30.7526 86.6905 30.3508C87.2491 29.9489 87.527 29.308 87.524 28.428C87.5212 27.5747 87.2657 26.9488 86.7577 26.5506C86.2497 26.1523 85.4357 25.955 84.3157 25.9587L74.7158 25.991L74.7326 30.9909Z" fill="white"/>
<path d="M0.704602 12.7159L3.15259 12.7077C3.30167 13.2285 3.63163 13.6128 4.14246 13.8604C4.65326 14.0967 5.39599 14.2132 6.37065 14.2099C8.17264 14.2039 9.07228 13.7985 9.06958 12.9938C9.06829 12.6085 8.82924 12.2976 8.35245 12.0612C7.87565 11.8248 7.04191 11.6066 5.85124 11.4066C3.94611 11.073 2.63569 10.6524 1.91998 10.1448C1.21557 9.62585 0.86163 8.8507 0.858168 7.81937C0.854098 6.60671 1.25911 5.71568 2.0732 5.14628C2.88726 4.56555 4.14995 4.27231 5.86127 4.26656C7.52726 4.26097 8.78058 4.55143 9.62122 5.13795C10.4618 5.71313 10.975 6.66908 11.1609 8.00579L8.66187 8.01418C8.54675 7.4819 8.25079 7.09756 7.77399 6.86116C7.30849 6.61338 6.62241 6.49102 5.71575 6.49406C4.02709 6.49973 3.18407 6.89356 3.1867 7.67556C3.18788 8.02689 3.40416 8.3095 3.83555 8.52338C4.27827 8.73723 5.07799 8.94988 6.2347 9.16134C8.20791 9.51738 9.56372 9.95483 10.3021 10.4737C11.0405 10.9925 11.4115 11.7733 11.415 12.816C11.4191 14.04 10.9915 14.9537 10.1322 15.5573C9.27284 16.1495 7.94784 16.4486 6.15718 16.4546C4.43452 16.4604 3.14154 16.1701 2.27824 15.5837C1.41493 14.9972 0.890385 14.0413 0.704602 12.7159ZM17.2381 6.60839L17.2305 4.3644L28.8755 4.32532L28.883 6.5693L24.259 6.58482L24.2914 16.2408L21.8945 16.2488L21.8621 6.59287L17.2381 6.60839ZM35.6296 4.30265L38.0266 4.2946L38.0485 10.8226C38.0524 11.9672 38.3215 12.7993 38.8559 13.3189C39.3903 13.8384 40.2412 14.0962 41.4085 14.0923C42.5758 14.0884 43.4193 13.8249 43.9389 13.3018C44.4698 12.7787 44.7333 11.9448 44.7295 10.8001L44.7076 4.27218L47.1046 4.26413L47.1271 10.9791C47.1334 12.8491 46.6846 14.2106 45.7808 15.0636C44.877 15.9053 43.422 16.3296 41.416 16.3363C39.4101 16.343 37.9467 15.9286 37.0258 15.093C36.1163 14.2461 35.6584 12.8876 35.6522 11.0176L35.6296 4.30265ZM54.6053 16.139L54.5654 4.23909L59.6314 4.22209C61.762 4.21494 63.3106 4.68007 64.2771 5.6175C65.2549 6.55489 65.7473 8.06625 65.7543 10.1516C65.7613 12.2369 65.279 13.7515 64.3075 14.6955C63.3474 15.6393 61.802 16.1149 59.6713 16.122L54.6053 16.139ZM56.9948 13.887L59.5788 13.8783C60.9161 13.8738 61.8841 13.5816 62.4828 13.0016C63.0815 12.4102 63.3787 11.4629 63.3743 10.1596C63.3699 8.85623 63.0664 7.91658 62.4638 7.3406C61.8612 6.75328 60.8912 6.46187 59.5539 6.46636L56.9699 6.47503L56.9948 13.887ZM72.9905 16.0773L72.9505 4.17738L75.3475 4.16934L75.3874 16.0693L72.9905 16.0773ZM88.6638 3.97164C90.7944 3.96449 92.343 4.44096 93.3096 5.40106C94.2875 6.36111 94.78 7.91214 94.7872 10.0541C94.7944 12.1848 94.3122 13.7391 93.3409 14.717C92.3808 15.6836 90.8354 16.1704 88.7047 16.1776C86.5627 16.1848 85.0085 15.7083 84.0419 14.7482C83.0753 13.7768 82.5884 12.2257 82.5813 10.0951C82.5741 7.9531 83.0505 6.39883 84.0106 5.43227C84.9707 4.46571 86.5218 3.97883 88.6638 3.97164ZM85.8354 7.14315C85.2481 7.75713 84.9567 8.73844 84.9613 10.0871C84.9658 11.4358 85.2637 12.4151 85.8551 13.0251C86.4465 13.6351 87.3939 13.938 88.6972 13.9336C90.0005 13.9292 90.9458 13.62 91.5331 13.0061C92.1204 12.3921 92.4117 11.4108 92.4072 10.0621C92.4027 8.71345 92.1047 7.73411 91.5134 7.1241C90.9219 6.50274 89.9746 6.19426 88.6712 6.19863C87.3679 6.203 86.4226 6.51785 85.8354 7.14315Z" fill="white"/>
</svg>
