<svg width="49" height="46" viewBox="0 0 49 46" fill="none" xmlns="http://www.w3.org/2000/svg">
<path d="M11.9552 13.1093C11.4807 12.8694 10.9067 12.8814 10.444 13.1409C9.98134 13.4003 9.698 13.869 9.698 14.375V32.5834C9.698 33.3773 10.3836 34.0209 11.2292 34.0209C12.0749 34.0209 12.7605 33.3773 12.7605 32.5834V16.7817L23.7741 22.349C24.2273 22.5782 24.7728 22.5782 25.2261 22.349L36.2397 16.7817V32.5834C36.2397 33.3773 36.9253 34.0209 37.7709 34.0209C38.6166 34.0209 39.3022 33.3773 39.3022 32.5834V14.375C39.3022 13.869 39.0188 13.4003 38.5561 13.1409C38.0935 12.8814 37.5196 12.8694 37.0449 13.1093L24.5001 19.4508L11.9552 13.1093Z" fill="black"/>
<path fill-rule="evenodd" clip-rule="evenodd" d="M35.3424 7.13333C28.1285 6.52782 20.8714 6.52782 13.6575 7.13333L10.5596 7.39337C7.23652 7.6723 4.55159 10.0555 4.06896 13.1546C3.05221 19.6835 3.05221 26.3163 4.06896 32.845C4.55159 35.9441 7.23652 38.3273 10.5596 38.6063L13.6575 38.8662C20.8714 39.4719 28.1285 39.4719 35.3424 38.8662L38.4402 38.6063C41.7634 38.3273 44.4482 35.9441 44.9309 32.845C45.9476 26.3163 45.9476 19.6835 44.9309 13.1546C44.4482 10.0555 41.7634 7.6723 38.4402 7.39337L35.3424 7.13333ZM13.9302 9.99691C20.9627 9.40663 28.0371 9.40663 35.0696 9.99691L38.1676 10.2569C40.0788 10.4174 41.6229 11.7881 41.9006 13.5705C42.8745 19.8234 42.8745 26.1762 41.9006 32.4291C41.6229 34.2116 40.0788 35.5822 38.1676 35.7427L35.0696 36.0027C28.0371 36.5931 20.9627 36.5931 13.9302 36.0027L10.8323 35.7427C8.92106 35.5822 7.37683 34.2116 7.09924 32.4291C6.12545 26.1762 6.12545 19.8234 7.09924 13.5705C7.37683 11.7881 8.92106 10.4174 10.8323 10.2569L13.9302 9.99691Z" fill="black"/>
</svg>
