<svg width="25" height="24" viewBox="0 0 25 24" fill="none" xmlns="http://www.w3.org/2000/svg">
<path d="M24.732 18.2015C23.8014 16.5123 20.5697 14.6808 20.4274 14.6007C20.0121 14.3737 19.5788 14.2536 19.1733 14.2536C18.0701 14.2536 17.4659 15.4725 16.6504 16.2155C16.6195 16.2436 16.5945 16.2645 16.5766 16.2769C15.4754 16.9942 14.6134 16.9128 13.6596 15.997L8.33634 10.8855C7.38857 9.97556 7.30145 9.13767 8.04344 8.08618C8.09101 8.02317 8.25555 7.87075 8.47428 7.68037C9.06193 7.16889 9.87391 6.79177 10.0901 6.04327C10.2342 5.54356 10.1281 4.95574 9.78788 4.38305C9.7077 4.25134 7.7992 1.14805 6.04085 0.254974C5.71272 0.0881061 5.34289 0 4.97212 0C4.36129 0 3.78661 0.22872 3.35467 0.642996L2.17842 1.77191C0.318113 3.55762 -0.355286 5.58183 0.175832 7.78804C0.618895 9.6267 1.91008 11.5833 4.01416 13.603L10.8293 20.1465C13.4923 22.7033 16.0311 24 18.3752 24C20.0997 24 21.7065 23.2965 23.1516 21.9095L24.3274 20.7806C25.042 20.0949 25.2042 19.0581 24.732 18.2015Z" fill="url(#paint0_linear_63_740)"/>
<path d="M13.7 11.0897C13.7565 11.1124 13.8168 11.1239 13.877 11.1239H19.4385C19.6943 11.1239 19.9019 10.925 19.9019 10.6789C19.9019 10.4329 19.6943 10.234 19.4385 10.234C17.8284 10.234 17.0391 8.27216 18.2005 7.15704L22.0834 3.42888C22.2646 3.25489 22.2646 2.97367 22.0834 2.79968C21.9022 2.62569 21.6093 2.62569 21.4281 2.79968L17.4174 6.65049C16.262 7.75987 14.3405 6.94098 14.3405 5.33918C14.3405 5.09311 14.1329 4.8942 13.877 4.8942C13.6212 4.8942 13.4136 5.09311 13.4136 5.33918V10.6789C13.4136 10.7368 13.4261 10.7946 13.4493 10.8489C13.4965 10.9579 13.5869 11.0447 13.7 11.0897Z" fill="url(#paint1_linear_63_740)"/>
<defs>
<linearGradient id="paint0_linear_63_740" x1="21" y1="28" x2="16.5" y2="-2.5" gradientUnits="userSpaceOnUse">
<stop stop-color="#A6C5F1"/>
<stop offset="1" stop-color="#2177F6"/>
</linearGradient>
<linearGradient id="paint1_linear_63_740" x1="17.8164" y1="2.66919" x2="17.8164" y2="11.1239" gradientUnits="userSpaceOnUse">
<stop stop-color="#6BA2F7"/>
<stop offset="1" stop-color="#A6C5F2"/>
</linearGradient>
</defs>
</svg>
