<svg width="27" height="27" viewBox="0 0 27 27" fill="none" xmlns="http://www.w3.org/2000/svg">
<path d="M2.5364 17.3749H8.55529C8.4101 16.1509 8.33325 14.849 8.33325 13.4999C8.33325 12.1508 8.4101 10.849 8.55529 9.62492H2.5364C2.10802 10.8369 1.87492 12.1412 1.87492 13.4999C1.87492 14.8586 2.10802 16.1629 2.5364 17.3749ZM3.0833 18.6666C4.62088 21.7606 7.49635 24.0724 10.9528 24.845C9.94641 23.4752 9.17563 21.2979 8.73851 18.6666H3.0833ZM24.4634 17.3749C24.8918 16.1629 25.1249 14.8586 25.1249 13.4999C25.1249 12.1412 24.8918 10.8369 24.4634 9.62492H18.4445C18.5897 10.849 18.6666 12.1508 18.6666 13.4999C18.6666 14.849 18.5897 16.1509 18.4445 17.3749H24.4634ZM23.9165 18.6666H18.2613C17.8242 21.2979 17.0534 23.4752 16.0471 24.845C19.5035 24.0724 22.379 21.7606 23.9165 18.6666ZM9.86311 17.3749H17.1367C17.2897 16.1638 17.3749 14.8598 17.3749 13.4999C17.3749 12.14 17.2897 10.836 17.1367 9.62492H9.86311C9.71015 10.836 9.62492 12.14 9.62492 13.4999C9.62492 14.8598 9.71015 16.1638 9.86311 17.3749ZM10.0576 18.6666C10.7321 22.5 12.1024 25.1249 13.4999 25.1249C14.8974 25.1249 16.2677 22.5 16.9422 18.6666H10.0576ZM3.0833 8.33325H8.73851C9.17563 5.70195 9.94641 3.52467 10.9528 2.15483C7.49635 2.92747 4.62088 5.23927 3.0833 8.33325ZM23.9165 8.33325C22.379 5.23927 19.5035 2.92747 16.0471 2.15483C17.0534 3.52467 17.8242 5.70195 18.2613 8.33325H23.9165ZM10.0576 8.33325H16.9422C16.2677 4.49981 14.8974 1.87492 13.4999 1.87492C12.1024 1.87492 10.7321 4.49981 10.0576 8.33325ZM13.4999 26.4166C6.36624 26.4166 0.583252 20.6336 0.583252 13.4999C0.583252 6.36624 6.36624 0.583252 13.4999 0.583252C20.6336 0.583252 26.4166 6.36624 26.4166 13.4999C26.4166 20.6336 20.6336 26.4166 13.4999 26.4166Z" fill="url(#paint0_linear_63_748)"/>
<defs>
<linearGradient id="paint0_linear_63_748" x1="17.9999" y1="23" x2="7.49988" y2="3" gradientUnits="userSpaceOnUse">
<stop stop-color="#5E096C"/>
<stop offset="1" stop-color="#951EA9"/>
</linearGradient>
</defs>
</svg>
